<svg width="247" height="246" viewBox="0 0 247 246" fill="none" xmlns="http://www.w3.org/2000/svg">
<path d="M223.5 122.5C223.5 174.297 179.297 216.5 124.5 216.5C69.7033 216.5 25.5 174.297 25.5 122.5C25.5 70.7027 69.7033 28.5 124.5 28.5C179.297 28.5 223.5 70.7027 223.5 122.5Z" stroke="#E82E7C" stroke-width="5"/>
<path fill-rule="evenodd" clip-rule="evenodd" d="M212.635 124.602C211.097 126.382 209.461 128.027 207.743 129.536C207.128 147.04 200.916 164.174 188.892 178.093C163.534 207.447 120.275 213.309 85.8014 193.775C84.9529 195.198 84.0267 196.589 83.0224 197.943C119.456 218.76 165.534 212.781 192.675 181.361C206.721 165.102 213.289 144.814 212.769 124.446C212.724 124.498 212.679 124.55 212.635 124.602ZM35.588 118.729C35.3573 98.7744 41.9404 78.9737 55.704 63.0405C81.6917 32.9565 125.042 26.1959 160.662 43.9499C158.423 44.6073 156.224 45.4232 154.082 46.3962C121.245 32.1911 82.8007 39.3213 59.4877 66.3091C46.6891 81.1251 40.4747 99.5832 40.5875 118.253C38.9145 118.328 37.2458 118.487 35.588 118.729Z" fill="#E82E7C"/>
</svg>
