<svg xmlns="http://www.w3.org/2000/svg" viewBox="0 0 1000 1000"><defs><style>.cls-1,.cls-2,.cls-3{fill:none;stroke:#e82e7c;stroke-miterlimit:10;}.cls-1{stroke-width:5px;}.cls-2{font-size:130px;font-family:Xolonium-Bold, Xolonium;font-weight:700;letter-spacing:0.2em;}.cls-2,.cls-3{stroke-width:7px;}</style></defs><title>Prancheta 2</title><g id="Camada_5" data-name="Camada 5"><path class="cls-1" d="M400.88,523.25l-60.06,51.44,53-19.35a.76.76,0,0,0,.48-.55l5.92-26.89,1-4.52a.5.5,0,0,0,0-.12.33.33,0,0,0,0-.14l-4.13-41,0-.12L385,442.91a0,0,0,0,0-.06,0l-2.22,55.91a.66.66,0,0,1-.06.27l-12.41,32.14-22,30L325.8,591.62l-8.62,3.2-13.1-3.52-10.87-4.79"/><polyline class="cls-1" points="293.21 375.32 316.54 379.79 331.55 386.82"/><polyline class="cls-1" points="328.04 390.66 350.4 372.13 372.45 363.5 391.3 363.5 396.41 368.93 398.33 381.07 394.18 408.87 388.74 427.4 381.39 452"/><path class="cls-1" d="M293.53,576.29l22.76-8.92a1,1,0,0,0,.6-1.26L313,553.6l-18.53-2.23V522.29"/><polyline class="cls-1" points="313.02 553.6 314.94 533.15 313.98 515.9 311.74 498.97"/><path class="cls-1" d="M323.93,492.11a.11.11,0,0,0,.11.14c2.12-.11,24.83-1.21,26,0s13.81-21.63,15.73-25.12a.29.29,0,0,0-.26-.44H341.08a.63.63,0,0,0-.45.18L328.19,479a1,1,0,0,0-.22.35Z"/><line class="cls-1" x1="370.21" y1="531.24" x2="397.05" y2="482.03"/><path class="cls-1" d="M351.36,501.2l-8.62,8-11.87,4a1.24,1.24,0,0,0-.64,1.87l13.46,15.26.64,34.5c0,.14,0,.14,0,0l7-34.18Z"/><polyline class="cls-1" points="293.85 606 305.75 604.07 321.71 593.14"/><path class="cls-1" d="M349.51,466.7l4.51,6.1a1.08,1.08,0,0,1,.22.65v5.78a.74.74,0,0,1-.15.45l-4.55,6.38a.77.77,0,0,1-.23.21L343.05,490h-7.34l-4.94-4a.83.83,0,0,1-.26-.35L328,479.48"/><path class="cls-1" d="M383.67,469.43l-12.18,16.76.64,11.82-1.92,16.61.78,13.17a.12.12,0,0,0,.23,0L377.88,499,376.64,488l7.16-18.55A.07.07,0,0,0,383.67,469.43Z"/><path class="cls-1" d="M337,398.62l19.17,9L370.21,421l6.8,20.1a.56.56,0,0,0,1.06,0l9.4-30.3L391,389.38l-2.88-16-8.3-2.87-16.62,4.79-15.33,11.5-11,11A.49.49,0,0,0,337,398.62Z"/><path class="cls-1" d="M363.18,375.32l-6.87,31.57a.22.22,0,0,1-.42,0l-8-20.1"/><line class="cls-1" x1="356.15" y1="407.91" x2="379.8" y2="370.53"/><path class="cls-1" d="M391,389.38l-20.39,31.06a.16.16,0,0,0,.21.22l16.67-9.87"/><line class="cls-1" x1="370.21" y1="420.69" x2="387.52" y2="373.2"/><polyline class="cls-1" points="343.69 530.28 346.89 522.93 342.74 509.19"/><path class="cls-1" d="M361.78,459.67H344l-9.58,4.79L322.25,476a.56.56,0,0,1-.9-.21L314,456.47l3.83-13.73V417.3a.09.09,0,0,1,.18,0l5.89,24.18-3.51,13.42,5.11,7,6.07-.64,9.27-9.27,21,7.51A.08.08,0,0,1,361.78,459.67Z"/><polyline class="cls-1" points="316.94 566.95 319.41 551.37 320.05 538.59 318.45 518.78 317.5 506.32 323.88 492.26"/><path class="cls-1" d="M186.81,523.25l60.07,51.44-53-19.35a.75.75,0,0,1-.49-.55l-5.92-26.89-1-4.52s0-.08,0-.12v-.14l4.14-41s0-.08,0-.12l12.07-39.06a0,0,0,0,1,.06,0L205,498.83a.86.86,0,0,0,0,.27l12.41,32.14,22.05,30,22.36,30.35,8.63,3.2,13-3.47,10.55-4.79"/><polyline class="cls-1" points="293.85 375.32 271.16 379.79 256.14 386.82"/><polyline class="cls-1" points="259.66 390.66 237.29 372.13 215.25 363.5 196.4 363.5 191.28 368.93 189.37 381.07 193.52 408.87 198.95 427.4 206.3 452"/><path class="cls-1" d="M294.17,576.29l-22.76-8.92a1,1,0,0,1-.61-1.26l3.87-12.51,18.53-2.23V522.29"/><polyline class="cls-1" points="274.67 553.6 272.76 533.15 273.71 515.9 275.95 498.97"/><path class="cls-1" d="M263.76,492.11a.11.11,0,0,1-.11.14c-2.11-.11-24.82-1.21-26,0s-13.81-21.63-15.73-25.12a.3.3,0,0,1,.26-.44h24.48a.62.62,0,0,1,.44.18L259.5,479a.87.87,0,0,1,.22.35Z"/><line class="cls-1" x1="217.48" y1="531.24" x2="190.64" y2="482.03"/><path class="cls-1" d="M236.33,501.2l8.63,8,11.87,4a1.25,1.25,0,0,1,.64,1.87L244,530.28l-.64,34.5c0,.14,0,.14,0,0l-7-34.18Z"/><polyline class="cls-1" points="294.49 606 282.02 604.08 265.99 593.14"/><path class="cls-1" d="M238.18,466.7l-4.51,6.1a1.07,1.07,0,0,0-.21.65v5.78a.8.8,0,0,0,.14.45l4.56,6.38a.87.87,0,0,0,.22.21l6.26,3.75H252l4.93-4a.85.85,0,0,0,.27-.35l2.47-6.18"/><path class="cls-1" d="M204,469.43l12.17,16.76L215.57,498l1.91,16.61-.78,13.17a.12.12,0,0,1-.23,0L209.81,499,211.05,488l-7.16-18.55A.07.07,0,0,1,204,469.43Z"/><path class="cls-1" d="M250.71,398.62l-19.17,9L217.48,421l-6.8,20.1a.56.56,0,0,1-1.06,0l-9.39-30.3-3.52-21.41,2.88-16,8.31-2.87,16.61,4.79,15.34,11.5,11,11A.49.49,0,0,1,250.71,398.62Z"/><path class="cls-1" d="M224.51,375.32l6.88,31.57a.22.22,0,0,0,.42,0l8-20.1"/><line class="cls-1" x1="231.54" y1="407.91" x2="207.9" y2="370.53"/><path class="cls-1" d="M196.71,389.38l20.4,31.06a.16.16,0,0,1-.21.22l-16.67-9.87"/><line class="cls-1" x1="217.48" y1="420.69" x2="200.18" y2="373.2"/><polyline class="cls-1" points="244 530.28 240.81 522.93 244.96 509.19"/><path class="cls-1" d="M225.92,459.67h17.76l9.59,4.79L265.44,476a.56.56,0,0,0,.9-.21l7.37-19.35-3.83-13.73V417.3a.09.09,0,0,0-.18,0l-5.89,24.18,3.51,13.42-5.11,7-6.07-.64L246.88,452l-21,7.51A.08.08,0,0,0,225.92,459.67Z"/><polyline class="cls-1" points="270.75 566.95 268.28 551.37 267.64 538.59 269.24 518.78 270.2 506.32 263.81 492.26"/><text class="cls-2" transform="translate(441.52 526.48)">XICO</text><line class="cls-3" x1="147.5" y1="327.5" x2="280.5" y2="327.5"/><line class="cls-3" x1="150.5" y1="457" x2="150.5" y2="324"/><line class="cls-1" x1="906.5" y1="640" x2="773.5" y2="640"/><line class="cls-1" x1="904.5" y1="509.5" x2="904.5" y2="642.5"/></g></svg>