<svg xmlns="http://www.w3.org/2000/svg" viewBox="0 0 757 320.5"><defs><style>.cls-1,.cls-2,.cls-3{fill:none;stroke:#e82e7c;stroke-miterlimit:10;}.cls-1{stroke-width:2.24px;}.cls-2{font-size:130px;font-family:Xolonium-Bold, Xolonium;font-weight:700;letter-spacing:0.2em;}.cls-2,.cls-3{stroke-width:3px;}</style></defs><title>Logo_horizontal</title><g id="Camada_2" data-name="Camada 2"><g id="Camada_5" data-name="Camada 5"><path class="cls-1" d="M251.88,200.25l-60.06,51.44,53-19.35a.76.76,0,0,0,.48-.55l5.92-26.89,1-4.52a.5.5,0,0,0,0-.12.33.33,0,0,0,0-.14l-4.13-41,0-.12L236,119.91a0,0,0,0,0-.06,0l-2.22,55.91a.66.66,0,0,1-.06.27l-12.41,32.14-22,30L176.8,268.62l-8.62,3.2-13.1-3.52-10.87-4.79"/><polyline class="cls-1" points="144.21 52.32 167.54 56.79 182.55 63.82"/><polyline class="cls-1" points="179.04 67.66 201.4 49.13 223.45 40.5 242.3 40.5 247.41 45.93 249.33 58.07 245.18 85.87 239.74 104.4 232.4 129"/><path class="cls-1" d="M144.53,253.29l22.76-8.92a1,1,0,0,0,.6-1.26L164,230.6l-18.53-2.23V199.29"/><polyline class="cls-1" points="164.02 230.6 165.94 210.15 164.98 192.9 162.74 175.97"/><path class="cls-1" d="M174.93,169.11a.11.11,0,0,0,.11.14c2.12-.11,24.83-1.21,26,0s13.81-21.63,15.73-25.12a.29.29,0,0,0-.26-.44H192.08a.63.63,0,0,0-.45.18L179.19,156a1,1,0,0,0-.22.35Z"/><line class="cls-1" x1="221.21" y1="208.24" x2="248.05" y2="159.03"/><path class="cls-1" d="M202.36,178.2l-8.62,8-11.87,4a1.24,1.24,0,0,0-.64,1.87l13.46,15.26.64,34.5c0,.14,0,.14,0,0l7-34.18Z"/><polyline class="cls-1" points="144.85 283 156.75 281.07 172.71 270.14"/><path class="cls-1" d="M200.51,143.7l4.51,6.1a1.08,1.08,0,0,1,.22.65v5.78a.74.74,0,0,1-.15.45l-4.55,6.38a.77.77,0,0,1-.23.21L194.05,167h-7.34l-4.94-4a.83.83,0,0,1-.26-.35L179,156.48"/><path class="cls-1" d="M234.67,146.43l-12.18,16.76.64,11.82-1.92,16.61.78,13.17a.12.12,0,0,0,.23,0L228.88,176,227.64,165l7.16-18.55A.07.07,0,0,0,234.67,146.43Z"/><path class="cls-1" d="M188,75.62l19.17,9L221.21,98l6.8,20.1a.56.56,0,0,0,1.06,0l9.4-30.3L242,66.38l-2.88-16-8.3-2.87-16.62,4.79-15.33,11.5-11,11A.49.49,0,0,0,188,75.62Z"/><path class="cls-1" d="M214.18,52.32l-6.87,31.57a.22.22,0,0,1-.42,0l-8-20.1"/><line class="cls-1" x1="207.15" y1="84.91" x2="230.8" y2="47.53"/><path class="cls-1" d="M242,66.38,221.59,97.44a.16.16,0,0,0,.21.22l16.67-9.87"/><line class="cls-1" x1="221.21" y1="97.69" x2="238.52" y2="50.2"/><polyline class="cls-1" points="194.69 207.28 197.89 199.93 193.74 186.19"/><path class="cls-1" d="M212.78,136.67H195l-9.58,4.79L173.25,153a.56.56,0,0,1-.9-.21L165,133.47l3.83-13.73V94.3a.09.09,0,0,1,.18,0l5.89,24.18-3.51,13.42,5.11,7,6.07-.64,9.27-9.27,21,7.51A.08.08,0,0,1,212.78,136.67Z"/><polyline class="cls-1" points="167.94 243.95 170.41 228.37 171.05 215.59 169.45 195.78 168.5 183.32 174.88 169.26"/><path class="cls-1" d="M37.81,200.25l60.07,51.44-53-19.35a.75.75,0,0,1-.49-.55L38.51,204.9l-1-4.52s0-.08,0-.12v-.14l4.14-41s0-.08,0-.12l12.07-39.06a0,0,0,0,1,.06,0L56,175.83a.86.86,0,0,0,0,.27l12.41,32.14,22,30,22.36,30.35,8.63,3.2,13-3.47,10.55-4.79"/><polyline class="cls-1" points="144.85 52.32 122.16 56.79 107.14 63.82"/><polyline class="cls-1" points="110.66 67.66 88.29 49.13 66.25 40.5 47.4 40.5 42.28 45.93 40.37 58.07 44.52 85.87 49.95 104.4 57.3 129"/><path class="cls-1" d="M145.17,253.29l-22.76-8.92a1,1,0,0,1-.61-1.26l3.87-12.51,18.53-2.23V199.29"/><polyline class="cls-1" points="125.67 230.6 123.76 210.15 124.71 192.9 126.95 175.97"/><path class="cls-1" d="M114.76,169.11a.11.11,0,0,1-.11.14c-2.11-.11-24.82-1.21-26,0S74.8,147.63,72.88,144.14a.3.3,0,0,1,.26-.44H97.62a.62.62,0,0,1,.44.18L110.5,156a.87.87,0,0,1,.22.35Z"/><line class="cls-1" x1="68.48" y1="208.24" x2="41.64" y2="159.03"/><path class="cls-1" d="M87.33,178.2l8.63,8,11.87,4a1.25,1.25,0,0,1,.64,1.87L95,207.28l-.64,34.5c0,.14,0,.14,0,0l-7-34.18Z"/><polyline class="cls-1" points="145.49 283 133.02 281.08 116.99 270.14"/><path class="cls-1" d="M89.18,143.7l-4.51,6.1a1.07,1.07,0,0,0-.21.65v5.78a.8.8,0,0,0,.14.45l4.56,6.38a.87.87,0,0,0,.22.21L95.64,167H103l4.93-4a.85.85,0,0,0,.27-.35l2.47-6.18"/><path class="cls-1" d="M55,146.43,67.2,163.19,66.57,175l1.91,16.61-.78,13.17a.12.12,0,0,1-.23,0L60.81,176,62.05,165l-7.16-18.55A.07.07,0,0,1,55,146.43Z"/><path class="cls-1" d="M101.71,75.62l-19.17,9L68.48,98l-6.8,20.1a.56.56,0,0,1-1.06,0l-9.39-30.3L47.71,66.38l2.88-16,8.31-2.87,16.61,4.79,15.34,11.5,11,11A.49.49,0,0,1,101.71,75.62Z"/><path class="cls-1" d="M75.51,52.32l6.88,31.57a.22.22,0,0,0,.42,0l8-20.1"/><line class="cls-1" x1="82.54" y1="84.91" x2="58.9" y2="47.53"/><path class="cls-1" d="M47.71,66.38l20.4,31.06a.16.16,0,0,1-.21.22L51.23,87.79"/><line class="cls-1" x1="68.48" y1="97.69" x2="51.18" y2="50.2"/><polyline class="cls-1" points="95 207.28 91.81 199.93 95.96 186.19"/><path class="cls-1" d="M76.92,136.67H94.68l9.59,4.79L116.44,153a.56.56,0,0,0,.9-.21l7.37-19.35-3.83-13.73V94.3a.09.09,0,0,0-.18,0l-5.89,24.18,3.51,13.42-5.11,7-6.07-.64L97.88,129l-21,7.51A.08.08,0,0,0,76.92,136.67Z"/><polyline class="cls-1" points="121.75 243.95 119.28 228.37 118.64 215.59 120.24 195.78 121.2 183.32 114.81 169.26"/><text class="cls-2" transform="translate(292.52 203.48)">XICO</text><line class="cls-3" x1="0.5" y1="1.5" x2="133.5" y2="1.5"/><line class="cls-3" x1="1.5" y1="134" x2="1.5" y2="1"/><line class="cls-3" x1="756.5" y1="319" x2="623.5" y2="319"/><line class="cls-3" x1="755.5" y1="186.5" x2="755.5" y2="319.5"/></g></g></svg>