<svg xmlns="http://www.w3.org/2000/svg" viewBox="0 0 458.01 516.69"><defs><style>.cls-1{fill:none;stroke:#e82e7c;stroke-miterlimit:10;stroke-width:4.72px;}</style></defs><title>logo</title><g id="Camada_2" data-name="Camada 2"><g id="Camada_7" data-name="Camada 7"><path class="cls-1" d="M455,339.64,328.18,448.25,440,407.41a1.62,1.62,0,0,0,1-1.17l12.49-56.79,2.1-9.52a2,2,0,0,0,0-.24.91.91,0,0,0,0-.33l-8.73-86.61c0-.09,0-.18-.05-.27L421.38,170c0-.07-.13-.06-.13,0l-4.69,118a1.81,1.81,0,0,1-.12.56l-26.2,67.86-46.55,63.41L296.47,484l-18.21,6.75-27.66-7.42-22.93-10.12"/><polyline class="cls-1" points="227.67 27.32 276.91 36.76 308.62 51.6"/><polyline class="cls-1" points="301.19 59.7 348.42 20.57 394.96 2.36 434.76 2.36 445.55 13.83 449.6 39.46 440.83 98.15 429.36 137.28 413.85 189.22"/><path class="cls-1" d="M228.34,451.63l48-18.83a2.16,2.16,0,0,0,1.28-2.66l-8.17-26.41L230.36,399V337.62"/><polyline class="cls-1" points="269.49 403.73 273.54 360.56 271.51 324.13 266.79 288.38"/><path class="cls-1" d="M292.53,273.89a.23.23,0,0,0,.23.31c4.46-.23,52.41-2.56,55,0s29.15-45.65,33.21-53a.63.63,0,0,0-.56-.94H328.72a1.3,1.3,0,0,0-.93.38l-26.27,25.61a1.88,1.88,0,0,0-.46.75Z"/><line class="cls-1" x1="390.24" y1="356.51" x2="446.9" y2="252.63"/><path class="cls-1" d="M350.44,293.1,332.22,310l-25.05,8.35a2.62,2.62,0,0,0-1.35,3.95l28.43,32.22,1.35,72.85c.06.29,0,.29,0,0l14.84-72.18Z"/><polyline class="cls-1" points="229.01 514.36 254.13 510.29 287.83 487.21"/><path class="cls-1" d="M346.53,220.25l9.53,12.88a2.34,2.34,0,0,1,.45,1.37v12.2a1.64,1.64,0,0,1-.31,1l-9.62,13.47a1.65,1.65,0,0,1-.47.44l-13.21,7.92H317.38L307,261a1.84,1.84,0,0,1-.56-.76l-5.22-13"/><path class="cls-1" d="M418.65,226,392.94,261.4l1.35,25-4.05,35.07,1.64,27.81a.25.25,0,0,0,.49,0l14.06-60.9-2.61-23.09,15.11-39.16A.15.15,0,0,0,418.65,226Z"/><path class="cls-1" d="M320.07,76.52l40.49,18.93,29.68,28.33,14.35,42.43a1.18,1.18,0,0,0,2.24,0l19.83-64L434.09,57,428,23.27,410.48,17.2,375.4,27.32,343,51.6,319.78,74.84A1,1,0,0,0,320.07,76.52Z"/><path class="cls-1" d="M375.4,27.32,360.88,94A.47.47,0,0,1,360,94L343,51.6"/><line class="cls-1" x1="360.56" y1="96.13" x2="410.48" y2="17.2"/><path class="cls-1" d="M434.09,57,391,122.58a.33.33,0,0,0,.45.47l35.18-20.85"/><line class="cls-1" x1="390.24" y1="123.11" x2="426.77" y2="22.84"/><polyline class="cls-1" points="334.25 354.49 340.99 338.97 332.23 309.97"/><path class="cls-1" d="M372.43,205.41H334.92l-20.23,10.12L289,240a1.17,1.17,0,0,1-1.9-.43l-15.57-40.86,8.1-29V115.94a.19.19,0,0,1,.38,0L292.43,167,285,195.29l10.8,14.84,12.81-1.35,19.57-19.56,44.27,15.85A.17.17,0,0,1,372.43,205.41Z"/><polyline class="cls-1" points="277.76 431.92 282.98 399.01 284.33 372.03 280.96 330.2 278.93 303.89 292.43 274.21"/><path class="cls-1" d="M3,339.64,129.83,448.25,18,407.41a1.6,1.6,0,0,1-1-1.17L4.5,349.45l-2.1-9.52a2,2,0,0,1,0-.24,1.82,1.82,0,0,1,0-.33l8.72-86.61.06-.27L36.63,170c0-.07.13-.06.13,0l4.69,118a1.81,1.81,0,0,0,.12.56l26.2,67.86,46.55,63.41L161.54,484l18.21,6.75,27.44-7.32,22.28-10.12"/><polyline class="cls-1" points="229.01 27.32 181.1 36.76 149.4 51.6"/><polyline class="cls-1" points="156.82 59.7 109.6 20.57 63.05 2.36 23.25 2.36 12.46 13.83 8.41 39.46 17.18 98.15 28.65 137.28 44.16 189.22"/><path class="cls-1" d="M229.69,451.63,181.63,432.8a2.16,2.16,0,0,1-1.28-2.66l8.17-26.41L227.65,399V337.62"/><polyline class="cls-1" points="188.52 403.73 184.47 360.56 186.5 324.13 191.22 288.38"/><path class="cls-1" d="M165.48,273.89a.23.23,0,0,1-.23.31c-4.46-.23-52.41-2.56-55,0s-29.15-45.65-33.21-53a.63.63,0,0,1,.56-.94h51.67a1.34,1.34,0,0,1,.94.38l26.26,25.61a1.88,1.88,0,0,1,.46.75Z"/><line class="cls-1" x1="67.77" y1="356.51" x2="11.11" y2="252.63"/><path class="cls-1" d="M107.57,293.1,125.79,310l25.06,8.35a2.62,2.62,0,0,1,1.34,3.95l-28.43,32.22-1.35,72.85c-.06.29,0,.29,0,0l-14.84-72.18Z"/><polyline class="cls-1" points="230.36 514.36 204.04 510.31 170.18 487.21"/><path class="cls-1" d="M111.48,220.25,102,233.13a2.34,2.34,0,0,0-.45,1.37v12.2a1.64,1.64,0,0,0,.31,1l9.62,13.47a1.65,1.65,0,0,0,.47.44l13.21,7.92h15.52L151,261a1.84,1.84,0,0,0,.56-.76l5.22-13"/><path class="cls-1" d="M39.36,226,65.07,261.4l-1.34,25,4,35.07-1.64,27.81a.25.25,0,0,1-.49,0l-14.06-60.9,2.61-23.09L39.08,226.13A.15.15,0,0,1,39.36,226Z"/><path class="cls-1" d="M137.94,76.52,97.45,95.45,67.77,123.78,53.42,166.21a1.18,1.18,0,0,1-2.24,0l-19.83-64L23.93,57,30,23.27,47.54,17.2,82.61,27.32,115,51.6l23.24,23.24A1,1,0,0,1,137.94,76.52Z"/><path class="cls-1" d="M82.61,27.32,97.13,94A.47.47,0,0,0,98,94L115,51.6"/><line class="cls-1" x1="97.45" y1="96.13" x2="47.54" y2="17.2"/><path class="cls-1" d="M23.93,57,67,122.58a.33.33,0,0,1-.45.47L31.35,102.2"/><line class="cls-1" x1="67.77" y1="123.11" x2="31.24" y2="22.84"/><polyline class="cls-1" points="123.76 354.49 117.02 338.97 125.79 309.97"/><path class="cls-1" d="M85.58,205.41h37.51l20.23,10.12L169,240a1.17,1.17,0,0,0,1.9-.43l15.57-40.86-8.1-29V115.94a.19.19,0,0,0-.38,0L165.59,167,173,195.29l-10.8,14.84-12.81-1.35-19.57-19.56L85.56,205.07A.17.17,0,0,0,85.58,205.41Z"/><polyline class="cls-1" points="180.25 431.92 175.03 399.01 173.68 372.03 177.05 330.2 179.08 303.89 165.59 274.21"/></g></g></svg>